<?xml version="1.0" encoding="utf-8"?>
<!-- Generator: Adobe Illustrator 26.1.0, SVG Export Plug-In . SVG Version: 6.00 Build 0)  -->
<svg version="1.1" id="Layer_1" xmlns="http://www.w3.org/2000/svg" xmlns:xlink="http://www.w3.org/1999/xlink" x="0px" y="0px"
	 viewBox="0 0 1024 1280" style="enable-background:new 0 0 1024 1280;" xml:space="preserve">
<g>
	<g>
		<circle cx="319.3" cy="283.6" r="104.1"/>
		<g>
			<path d="M413.4,283.6c-0.3,38.9-24.8,75.2-61.8,88.4c-37.5,13.4-79.4,1.8-105-28.7c-25.4-30.3-28.1-75.2-7.6-108.7
				c20.1-33.1,60.2-51.1,98.3-43.4C381.2,200.1,413.1,238.9,413.4,283.6c0.1,12.9,20.1,12.9,20,0c-0.3-47.8-30.4-90.6-75.2-107.3
				c-44.3-16.4-96.6-2.2-126.5,34.4c-30.4,37.2-35.1,90.6-9.9,132c25,41.1,73.9,62,120.9,52.6c52.5-10.6,90.4-58.6,90.8-111.7
				C433.5,270.7,413.5,270.7,413.4,283.6z"/>
		</g>
	</g>
	<g>
		<circle cx="319.3" cy="640.1" r="104.1"/>
		<g>
			<path d="M413.4,640.1c-0.3,38.9-24.8,75.2-61.8,88.4c-37.5,13.4-79.4,1.8-105-28.7c-25.4-30.3-28.1-75.2-7.6-108.7
				c20.1-33.1,60.2-51.1,98.3-43.4C381.2,556.6,413.1,595.4,413.4,640.1c0.1,12.9,20.1,12.9,20,0c-0.3-47.8-30.4-90.6-75.2-107.3
				c-44.3-16.4-96.6-2.2-126.5,34.4c-30.4,37.2-35.1,90.6-9.9,132c25,41.1,73.9,62,120.9,52.6c52.5-10.6,90.4-58.6,90.8-111.7
				C433.5,627.2,413.5,627.2,413.4,640.1z"/>
		</g>
	</g>
	<g>
		<circle cx="319.3" cy="996.6" r="104.1"/>
		<g>
			<path d="M413.4,996.6c-0.3,38.9-24.8,75.2-61.8,88.4c-37.5,13.4-79.4,1.8-105-28.7c-25.4-30.3-28.1-75.2-7.6-108.7
				c20.1-33.1,60.2-51.1,98.3-43.4C381.2,913.1,413.1,951.9,413.4,996.6c0.1,12.9,20.1,12.9,20,0c-0.3-47.8-30.4-90.6-75.2-107.3
				c-44.3-16.4-96.6-2.2-126.5,34.4c-30.4,37.2-35.1,90.6-9.9,132c25,41.1,73.9,62,120.9,52.6c52.5-10.6,90.4-58.6,90.8-111.7
				C433.5,983.7,413.5,983.7,413.4,996.6z"/>
		</g>
	</g>
	<g>
		<circle cx="704.3" cy="283.6" r="104.1"/>
		<g>
			<path d="M798.4,283.6c-0.3,38.9-24.8,75.2-61.8,88.4c-37.5,13.4-79.4,1.8-105-28.7c-25.4-30.3-28.1-75.2-7.6-108.7
				c20.1-33.1,60.2-51.1,98.3-43.4C766.2,200.1,798.1,238.9,798.4,283.6c0.1,12.9,20.1,12.9,20,0c-0.3-47.8-30.4-90.6-75.2-107.3
				c-44.3-16.4-96.6-2.2-126.5,34.4c-30.4,37.2-35.1,90.6-9.9,132c25,41.1,73.9,62,120.9,52.6c52.5-10.6,90.4-58.6,90.8-111.7
				C818.5,270.7,798.5,270.7,798.4,283.6z"/>
		</g>
	</g>
	<g>
		<circle cx="704.3" cy="640.1" r="104.1"/>
		<g>
			<path d="M798.4,640.1c-0.3,38.9-24.8,75.2-61.8,88.4c-37.5,13.4-79.4,1.8-105-28.7c-25.4-30.3-28.1-75.2-7.6-108.7
				c20.1-33.1,60.2-51.1,98.3-43.4C766.2,556.6,798.1,595.4,798.4,640.1c0.1,12.9,20.1,12.9,20,0c-0.3-47.8-30.4-90.6-75.2-107.3
				c-44.3-16.4-96.6-2.2-126.5,34.4c-30.4,37.2-35.1,90.6-9.9,132c25,41.1,73.9,62,120.9,52.6c52.5-10.6,90.4-58.6,90.8-111.7
				C818.5,627.2,798.5,627.2,798.4,640.1z"/>
		</g>
	</g>
	<g>
		<circle cx="704.3" cy="996.6" r="104.1"/>
		<g>
			<path d="M798.4,996.6c-0.3,38.9-24.8,75.2-61.8,88.4c-37.5,13.4-79.4,1.8-105-28.7c-25.4-30.3-28.1-75.2-7.6-108.7
				c20.1-33.1,60.2-51.1,98.3-43.4C766.2,913.1,798.1,951.9,798.4,996.6c0.1,12.9,20.1,12.9,20,0c-0.3-47.8-30.4-90.6-75.2-107.3
				c-44.3-16.4-96.6-2.2-126.5,34.4c-30.4,37.2-35.1,90.6-9.9,132c25,41.1,73.9,62,120.9,52.6c52.5-10.6,90.4-58.6,90.8-111.7
				C818.5,983.7,798.5,983.7,798.4,996.6z"/>
		</g>
	</g>
</g>
</svg>
