<?xml version="1.0" encoding="utf-8"?>
<!-- Generator: Adobe Illustrator 26.1.0, SVG Export Plug-In . SVG Version: 6.00 Build 0)  -->
<svg version="1.1" id="Layer_1" xmlns="http://www.w3.org/2000/svg" xmlns:xlink="http://www.w3.org/1999/xlink" x="0px" y="0px"
	 viewBox="0 0 100 100" style="enable-background:new 0 0 100 100;" xml:space="preserve">
<path fill="#767676" d="M90.1,85.1c-0.4-0.6-1-1.1-1.5-1.6c-6.7-6.7-13.4-13.4-20.1-20.2c-0.5-0.5-1-1.1-1.6-1.7c11.5-15.3,7.8-34.1-4-44.5
	c-12.2-10.7-30.4-10.7-42.6,0C7.9,28,5.6,46.3,14.9,59.8c4.6,6.7,10.9,11.1,18.8,13c10.2,2.5,19.6,0.3,28.1-6
	c0.6,0.6,1.2,1.1,1.7,1.6c6.7,6.7,13.4,13.4,20.2,20.1c0.5,0.5,0.9,1,1.5,1.4c1.5,1.2,3.4,1.1,4.7-0.1C91,88.6,91.2,86.6,90.1,85.1z
	 M41.4,66.7c-13.8,0-25.1-11.3-25.1-25.2c0-13.9,11.4-25.3,25.3-25.2c13.9,0,25.2,11.4,25.1,25.4C66.6,55.5,55.2,66.7,41.4,66.7z"/>
</svg>
